<svg width="200" height="200" viewBox="0 0 200 200" fill="none" xmlns="http://www.w3.org/2000/svg">
<path d="M193.143 58.5714C197.143 62.5714 199.714 68 199.714 74.2857V126C199.714 132.286 197.143 137.714 193.143 141.714L141.429 193.429C137.429 197.714 131.714 200 125.714 200H74C67.7143 200 62.2857 197.714 58 193.429L6.28571 141.714C2.28571 137.714 0 132.286 0 126V74.2857C0 68 2.28571 62.5714 6.28571 58.2857L58 6.57143C62.2857 2.57143 67.7143 0 74 0H125.714C131.714 0 137.429 2.57143 141.429 6.85714L193.143 58.5714ZM152.345 130.345V69.9407C152.345 57.655 142.345 47.3693 130.059 47.3693H69.655C57.0836 47.3693 47.0836 57.655 47.0836 69.9407V130.345C47.0836 142.631 57.0836 152.631 69.655 152.631H130.059C142.345 152.631 152.345 142.631 152.345 130.345Z" fill="black"/>
</svg>
